<svg width="257" height="74" viewBox="0 0 257 74" fill="none" xmlns="http://www.w3.org/2000/svg">
<path d="M1 32.8534C11.8528 32.8534 22.8933 30.777 33.4074 28.2536C43.9659 25.7196 78.7913 20.3557 83.3775 7.97286C89.3611 -8.18275 62.2621 8.54678 59.3333 10.3773C37.219 24.1988 38.2559 55.3197 17.9355 68.6061C16.9496 69.2507 1.14475 75.3368 3.29988 70.4878C8.19153 59.4816 22.0688 51.0434 32.7802 47.1754C47.0877 42.0088 58.7984 53.5509 72.2963 39.4394C78.1579 33.3114 78.4189 34.7351 86.6183 34.7351C89.9485 34.7351 97.9453 38.4873 99.2676 38.0804C101.899 37.2709 110.999 30.5485 112.44 32.8534C116.391 39.1763 122.503 38.401 128.748 36.6168C131.726 35.7659 129.041 35.0161 127.075 39.4394C125.539 42.8954 122.755 48.1857 119.548 49.7889" stroke="#131520" stroke-width="2" stroke-linecap="round"/>
<path d="M91.7742 60.6375C102.662 47.5727 109.472 31.0526 113.937 14.8489C114.241 13.7435 115.987 2.63622 116.341 5.64942C116.919 10.5595 117.534 15.9692 118.955 20.7032C122.133 31.2971 128.237 26.8513 132.754 19.6578C139.847 8.36082 135.139 19.2503 137.981 26.5574C140.654 33.4305 146.153 28.8573 150.944 28.8573C155.215 28.8573 156.442 35.601 161.607 36.0706C178.597 37.6151 199.243 28.6596 215.759 24.9893C229.522 21.9309 241.8 24.8848 255.484 24.8848" stroke="#131520" stroke-width="2" stroke-linecap="round"/>
</svg>
